<?xml version="1.0" encoding="utf-8"?>
<!-- Svg Vector Icons : http://www.onlinewebfonts.com/icon -->
<!DOCTYPE svg PUBLIC "-//W3C//DTD SVG 1.1//EN" "http://www.w3.org/Graphics/SVG/1.1/DTD/svg11.dtd">
<svg version="1.1" xmlns="http://www.w3.org/2000/svg" xmlns:xlink="http://www.w3.org/1999/xlink" x="0px" y="0px" viewBox="0 0 256 256" enable-background="new 0 0 256 256" xml:space="preserve">
<metadata> Svg Vector Icons : http://www.onlinewebfonts.com/icon </metadata>
<g><g><path fill="#000000" d="M210.6,185.5c0-0.8,0.7-1.4,1.4-1.4c0.8,0,1.4,0.7,1.4,1.4s-0.7,1.4-1.4,1.4C211.3,186.9,210.6,186.3,210.6,185.5z M178.9,218.3c0-1.6,1.3-2.9,2.9-2.9s2.9,1.3,2.9,2.9c0,1.6-1.3,2.9-2.9,2.9S178.9,219.8,178.9,218.3z M136,235.1c0-2.4,1.9-4.3,4.3-4.3s4.3,1.9,4.3,4.3c0,2.4-1.9,4.3-4.3,4.3S136,237.5,136,235.1z M89.9,232.9c0-3.2,2.6-5.7,5.7-5.7c3.2,0,5.7,2.6,5.7,5.7c0,3.2-2.6,5.7-5.7,5.7C92.5,238.6,89.9,236,89.9,232.9L89.9,232.9z M49,211.9c0-3.9,3.2-7.2,7.2-7.2c3.9,0,7.2,3.2,7.2,7.2c0,3.9-3.2,7.2-7.2,7.2C52.2,219.1,49,215.8,49,211.9z M20.6,176.2c0-4.7,3.9-8.6,8.6-8.6s8.6,3.9,8.6,8.6s-3.9,8.6-8.6,8.6S20.6,180.9,20.6,176.2z M10,132.4c0-5.5,4.5-10,10-10s10,4.5,10,10c0,5.5-4.5,10-10,10C14.5,142.4,10,137.9,10,132.4z M18.7,88.8c0-6.3,5.1-11.5,11.5-11.5c6.3,0,11.5,5.1,11.5,11.5c0,6.3-5.1,11.5-11.5,11.5C23.9,100.3,18.7,95.2,18.7,88.8z M45,53.7c0-7.1,5.8-12.9,12.9-12.9s12.9,5.8,12.9,12.9c0,7.1-5.8,12.9-12.9,12.9C50.8,66.6,45,60.8,45,53.7z M83.5,33.6c0-7.9,6.4-14.3,14.3-14.3c7.9,0,14.3,6.4,14.3,14.3c0,7.9-6.4,14.3-14.3,14.3C90,47.9,83.5,41.5,83.5,33.6z M126.8,32.3c0-8.7,7.1-15.8,15.8-15.8s15.8,7.1,15.8,15.8c0,8.7-7.1,15.8-15.8,15.8C133.9,48.1,126.8,41,126.8,32.3z M166.5,50.2c0-9.5,7.7-17.2,17.2-17.2c9.5,0,17.2,7.7,17.2,17.2l0,0c0,9.5-7.7,17.2-17.2,17.2C174.2,67.4,166.5,59.7,166.5,50.2z M194.6,83.7c0-10.3,8.4-18.6,18.6-18.6s18.6,8.4,18.6,18.6l0,0c0,10.3-8.4,18.6-18.6,18.6S194.6,93.9,194.6,83.7z M205.8,127.1c0-11.1,9-20.1,20.1-20.1c11.1,0,20.1,9,20.1,20.1l0,0c0,11.1-9,20.1-20.1,20.1C214.8,147.1,205.8,138.1,205.8,127.1z"/></g></g>
</svg>